<mxfile host="app.diagrams.net" modified="2023-03-06T10:07:49.756Z" agent="5.0 (X11; Linux x86_64) AppleWebKit/537.36 (KHTML, like Gecko) Chrome/101.0.4951.41 Safari/537.36" etag="tXkx_3IX-ssKJzgctV26" version="21.0.2" type="github">
  <diagram id="_Tw7cie5sc5Xm_C29QAL" name="第 1 页">
    <mxGraphModel dx="1368" dy="685" grid="1" gridSize="10" guides="1" tooltips="1" connect="1" arrows="1" fold="1" page="1" pageScale="1" pageWidth="827" pageHeight="1169" math="0" shadow="0">
      <root>
        <mxCell id="0" />
        <mxCell id="1" parent="0" />
      </root>
    </mxGraphModel>
  </diagram>
</mxfile>
